<svg width="95" height="13" viewBox="0 0 95 13" fill="none" xmlns="http://www.w3.org/2000/svg">
    <path
        d="M4.886 11.182C4.046 11.182 3.318 11.0233 2.702 10.706C2.09533 10.3887 1.62867 9.94067 1.302 9.362C0.975333 8.774 0.812 8.07867 0.812 7.276V1.2H3.066V7.276C3.066 7.64933 3.14067 7.97133 3.29 8.242C3.43933 8.51267 3.64933 8.72267 3.92 8.872C4.2 9.02133 4.53133 9.096 4.914 9.096C5.28733 9.096 5.614 9.02133 5.894 8.872C6.174 8.72267 6.38867 8.51267 6.538 8.242C6.68733 7.97133 6.762 7.64933 6.762 7.276V1.2H9.016V7.276C9.016 8.07867 8.848 8.774 8.512 9.362C8.18533 9.94067 7.70933 10.3887 7.084 10.706C6.468 11.0233 5.73533 11.182 4.886 11.182ZM9.97008 11L13.7781 5.638L16.8441 1.2H19.5321L15.8221 6.268L12.6861 11H9.97008ZM16.9001 11L13.7781 6.268L10.0541 1.2H12.7421L15.8221 5.638L19.6161 11H16.9001ZM19.9659 12.176L23.8299 0.541999H25.8739L22.0379 12.176H19.9659ZM30.9719 11.182C30.1319 11.182 29.4039 11.0233 28.7879 10.706C28.1813 10.3887 27.7146 9.94067 27.3879 9.362C27.0613 8.774 26.8979 8.07867 26.8979 7.276V1.2H29.1519V7.276C29.1519 7.64933 29.2266 7.97133 29.3759 8.242C29.5253 8.51267 29.7353 8.72267 30.0059 8.872C30.2859 9.02133 30.6173 9.096 30.9999 9.096C31.3733 9.096 31.6999 9.02133 31.9799 8.872C32.2599 8.72267 32.4746 8.51267 32.6239 8.242C32.7733 7.97133 32.8479 7.64933 32.8479 7.276V1.2H35.1019V7.276C35.1019 8.07867 34.9339 8.774 34.5979 9.362C34.2713 9.94067 33.7953 10.3887 33.1699 10.706C32.5539 11.0233 31.8213 11.182 30.9719 11.182ZM36.868 11V1.2H39.122V11H36.868ZM44.3055 11V1.2H47.5115C48.5475 1.2 49.4622 1.41 50.2555 1.83C51.0582 2.25 51.6835 2.82867 52.1315 3.566C52.5795 4.294 52.8035 5.13867 52.8035 6.1C52.8035 7.052 52.5795 7.89667 52.1315 8.634C51.6835 9.37133 51.0582 9.95 50.2555 10.37C49.4622 10.79 48.5475 11 47.5115 11H44.3055ZM46.5595 8.872H47.5115C47.9408 8.872 48.3375 8.80667 48.7015 8.676C49.0655 8.536 49.3828 8.34467 49.6535 8.102C49.9242 7.85 50.1342 7.556 50.2835 7.22C50.4328 6.87467 50.5075 6.50133 50.5075 6.1C50.5075 5.69867 50.4328 5.33 50.2835 4.994C50.1342 4.64867 49.9242 4.35467 49.6535 4.112C49.3828 3.86 49.0655 3.66867 48.7015 3.538C48.3375 3.398 47.9408 3.328 47.5115 3.328H46.5595V8.872ZM54.1766 11V1.2H60.5606V3.272H56.4306V5.064H59.8886V7.066H56.4306V8.928H60.6306V11H54.1766ZM65.7534 11.168C65.2774 11.168 64.8201 11.1073 64.3814 10.986C63.9521 10.8553 63.5601 10.6827 63.2054 10.468C62.8601 10.244 62.5754 9.99667 62.3514 9.726C62.1274 9.446 61.9874 9.14733 61.9314 8.83L64.1574 8.2C64.2601 8.47067 64.4374 8.70867 64.6894 8.914C64.9507 9.11 65.2774 9.21267 65.6694 9.222C66.0521 9.23133 66.3694 9.14267 66.6214 8.956C66.8827 8.76933 67.0134 8.52667 67.0134 8.228C67.0134 7.99467 66.9201 7.78933 66.7334 7.612C66.5561 7.43467 66.2994 7.29933 65.9634 7.206L64.5774 6.856C64.0921 6.73467 63.6674 6.54333 63.3034 6.282C62.9487 6.02067 62.6687 5.70333 62.4634 5.33C62.2674 4.94733 62.1694 4.51333 62.1694 4.028C62.1694 3.08533 62.4821 2.35267 63.1074 1.83C63.7327 1.298 64.6147 1.032 65.7534 1.032C66.3787 1.032 66.9247 1.12067 67.3914 1.298C67.8581 1.466 68.2547 1.718 68.5814 2.054C68.9174 2.39 69.1834 2.81 69.3794 3.314L67.1674 3.972C67.0927 3.72 66.9294 3.49133 66.6774 3.286C66.4347 3.08067 66.1174 2.978 65.7254 2.978C65.3334 2.978 65.0254 3.06667 64.8014 3.244C64.5867 3.42133 64.4794 3.678 64.4794 4.014C64.4794 4.24733 64.5681 4.44333 64.7454 4.602C64.9227 4.75133 65.1654 4.86333 65.4734 4.938L66.8594 5.288C67.6527 5.484 68.2687 5.85267 68.7074 6.394C69.1554 6.926 69.3794 7.53267 69.3794 8.214C69.3794 8.83 69.2347 9.35733 68.9454 9.796C68.6654 10.2347 68.2547 10.5753 67.7134 10.818C67.1721 11.0513 66.5187 11.168 65.7534 11.168ZM70.829 11V1.2H73.083V11H70.829ZM79.5912 11.168C78.5832 11.168 77.6919 10.9533 76.9172 10.524C76.1519 10.0853 75.5499 9.488 75.1112 8.732C74.6725 7.96667 74.4532 7.08933 74.4532 6.1C74.4532 5.11067 74.6725 4.238 75.1112 3.482C75.5499 2.71667 76.1519 2.11933 76.9172 1.69C77.6919 1.25133 78.5832 1.032 79.5912 1.032C80.2165 1.032 80.7812 1.12533 81.2852 1.312C81.7985 1.48933 82.2465 1.73667 82.6292 2.054C83.0119 2.37133 83.3292 2.73533 83.5812 3.146L81.7192 4.266C81.5792 4.042 81.3925 3.84133 81.1592 3.664C80.9352 3.48667 80.6879 3.35133 80.4172 3.258C80.1465 3.15533 79.8712 3.104 79.5912 3.104C79.0405 3.104 78.5505 3.23 78.1212 3.482C77.7012 3.734 77.3699 4.08867 77.1272 4.546C76.8845 4.994 76.7632 5.512 76.7632 6.1C76.7632 6.688 76.8799 7.21067 77.1132 7.668C77.3465 8.116 77.6825 8.47067 78.1212 8.732C78.5599 8.99333 79.0685 9.124 79.6472 9.124C80.0859 9.124 80.4732 9.04 80.8092 8.872C81.1452 8.704 81.4112 8.47067 81.6072 8.172C81.8032 7.87333 81.9012 7.52333 81.9012 7.122L84.0432 6.758C84.0432 7.71 83.8519 8.51733 83.4692 9.18C83.0865 9.83333 82.5639 10.328 81.9012 10.664C81.2385 11 80.4685 11.168 79.5912 11.168ZM79.6612 7.36V5.624H84.0432V6.954L82.7832 7.36H79.6612ZM85.2801 11V1.2H87.6461L91.9441 7.178V1.2H94.1981V11H91.9441L87.5341 4.854V11H85.2801Z"
        fill="url(#paint0_linear_12_128)" />
    <defs>
        <linearGradient id="paint0_linear_12_128" x1="0" y1="6.5" x2="96" y2="6.5"
            gradientUnits="userSpaceOnUse">
            <stop stop-color="white" />
            <stop offset="1" stop-color="#0F89B0" />
        </linearGradient>
    </defs>
</svg>